<svg xmlns="http://www.w3.org/2000/svg" xmlns:xlink="http://www.w3.org/1999/xlink" width="2000" zoomAndPan="magnify" viewBox="180 606 1106 287" height="2000" preserveAspectRatio="xMidYMid meet" version="1.0"><defs><g/><clipPath id="d4c2c8a1b4"><rect x="0" width="1106" y="0" height="287"/></clipPath></defs><g transform="matrix(1, 0, 0, 1, 180, 606)"><g clip-path="url(#d4c2c8a1b4)"><g fill="currentColor" fill-opacity="1"><g transform="translate(5.602415, 235.592819)"><g><path d="M 166.796875 -172.28125 L 97.21875 0 L 68.265625 0 L -1.3125 -172.28125 L 24.421875 -172.28125 C 27.203125 -172.28125 29.46875 -171.601562 31.21875 -170.25 C 32.96875 -168.90625 34.273438 -167.160156 35.140625 -165.015625 L 75.78125 -59.921875 C 77.125 -56.515625 78.410156 -52.765625 79.640625 -48.671875 C 80.878906 -44.578125 82.050781 -40.304688 83.15625 -35.859375 C 84.113281 -40.304688 85.144531 -44.578125 86.25 -48.671875 C 87.363281 -52.765625 88.597656 -56.515625 89.953125 -59.921875 L 130.34375 -165.015625 C 130.976562 -166.835938 132.226562 -168.503906 134.09375 -170.015625 C 135.957031 -171.523438 138.238281 -172.28125 140.9375 -172.28125 Z M 166.796875 -172.28125 "/></g></g></g><g fill="currentColor" fill-opacity="1"><g transform="translate(152.147852, 235.592819)"><g><path d="M 68.625 -124.140625 C 77.675781 -124.140625 85.914062 -122.671875 93.34375 -119.734375 C 100.769531 -116.796875 107.125 -112.625 112.40625 -107.21875 C 117.6875 -101.820312 121.753906 -95.234375 124.609375 -87.453125 C 127.472656 -79.671875 128.90625 -70.972656 128.90625 -61.359375 C 128.90625 -51.671875 127.472656 -42.929688 124.609375 -35.140625 C 121.753906 -27.359375 117.6875 -20.726562 112.40625 -15.25 C 107.125 -9.769531 100.769531 -5.5625 93.34375 -2.625 C 85.914062 0.3125 77.675781 1.78125 68.625 1.78125 C 59.488281 1.78125 51.1875 0.3125 43.71875 -2.625 C 36.257812 -5.5625 29.890625 -9.769531 24.609375 -15.25 C 19.328125 -20.726562 15.234375 -27.359375 12.328125 -35.140625 C 9.429688 -42.929688 7.984375 -51.671875 7.984375 -61.359375 C 7.984375 -70.972656 9.429688 -79.671875 12.328125 -87.453125 C 15.234375 -95.234375 19.328125 -101.820312 24.609375 -107.21875 C 29.890625 -112.625 36.257812 -116.796875 43.71875 -119.734375 C 51.1875 -122.671875 59.488281 -124.140625 68.625 -124.140625 Z M 68.625 -20.84375 C 78.789062 -20.84375 86.316406 -24.257812 91.203125 -31.09375 C 96.085938 -37.925781 98.53125 -47.9375 98.53125 -61.125 C 98.53125 -74.300781 96.085938 -84.34375 91.203125 -91.25 C 86.316406 -98.164062 78.789062 -101.625 68.625 -101.625 C 58.300781 -101.625 50.65625 -98.148438 45.6875 -91.203125 C 40.726562 -84.253906 38.25 -74.226562 38.25 -61.125 C 38.25 -48.019531 40.726562 -38.03125 45.6875 -31.15625 C 50.65625 -24.28125 58.300781 -20.84375 68.625 -20.84375 Z M 68.625 -20.84375 "/></g></g></g><g fill="currentColor" fill-opacity="1"><g transform="translate(289.042747, 235.592819)"><g><path d="M 45.03125 -122.234375 L 45.03125 0 L 15.484375 0 L 15.484375 -122.234375 Z M 49.09375 -157.859375 C 49.09375 -155.316406 48.570312 -152.929688 47.53125 -150.703125 C 46.5 -148.484375 45.128906 -146.539062 43.421875 -144.875 C 41.710938 -143.207031 39.707031 -141.875 37.40625 -140.875 C 35.101562 -139.882812 32.644531 -139.390625 30.03125 -139.390625 C 27.488281 -139.390625 25.082031 -139.882812 22.8125 -140.875 C 20.550781 -141.875 18.585938 -143.207031 16.921875 -144.875 C 15.253906 -146.539062 13.921875 -148.484375 12.921875 -150.703125 C 11.929688 -152.929688 11.4375 -155.316406 11.4375 -157.859375 C 11.4375 -160.484375 11.929688 -162.945312 12.921875 -165.25 C 13.921875 -167.550781 15.253906 -169.535156 16.921875 -171.203125 C 18.585938 -172.867188 20.550781 -174.195312 22.8125 -175.1875 C 25.082031 -176.1875 27.488281 -176.6875 30.03125 -176.6875 C 32.644531 -176.6875 35.101562 -176.1875 37.40625 -175.1875 C 39.707031 -174.195312 41.710938 -172.867188 43.421875 -171.203125 C 45.128906 -169.535156 46.5 -167.550781 47.53125 -165.25 C 48.570312 -162.945312 49.09375 -160.484375 49.09375 -157.859375 Z M 49.09375 -157.859375 "/></g></g></g><g fill="currentColor" fill-opacity="1"><g transform="translate(349.567163, 235.592819)"><g><path d="M 102.109375 -96.390625 C 101.234375 -95.273438 100.378906 -94.398438 99.546875 -93.765625 C 98.710938 -93.128906 97.5 -92.8125 95.90625 -92.8125 C 94.394531 -92.8125 92.925781 -93.265625 91.5 -94.171875 C 90.070312 -95.085938 88.363281 -96.117188 86.375 -97.265625 C 84.394531 -98.421875 82.03125 -99.457031 79.28125 -100.375 C 76.539062 -101.289062 73.148438 -101.75 69.109375 -101.75 C 63.941406 -101.75 59.410156 -100.8125 55.515625 -98.9375 C 51.628906 -97.070312 48.394531 -94.390625 45.8125 -90.890625 C 43.226562 -87.398438 41.300781 -83.171875 40.03125 -78.203125 C 38.757812 -73.242188 38.125 -67.628906 38.125 -61.359375 C 38.125 -54.847656 38.816406 -49.050781 40.203125 -43.96875 C 41.597656 -38.882812 43.601562 -34.613281 46.21875 -31.15625 C 48.84375 -27.695312 52.019531 -25.070312 55.75 -23.28125 C 59.488281 -21.5 63.703125 -20.609375 68.390625 -20.609375 C 73.078125 -20.609375 76.867188 -21.179688 79.765625 -22.328125 C 82.660156 -23.484375 85.101562 -24.753906 87.09375 -26.140625 C 89.082031 -27.535156 90.8125 -28.804688 92.28125 -29.953125 C 93.75 -31.109375 95.394531 -31.6875 97.21875 -31.6875 C 99.601562 -31.6875 101.390625 -30.773438 102.578125 -28.953125 L 111.046875 -18.234375 C 107.785156 -14.421875 104.25 -11.222656 100.4375 -8.640625 C 96.625 -6.054688 92.671875 -3.988281 88.578125 -2.4375 C 84.492188 -0.894531 80.285156 0.191406 75.953125 0.828125 C 71.617188 1.460938 67.3125 1.78125 63.03125 1.78125 C 55.476562 1.78125 48.363281 0.375 41.6875 -2.4375 C 35.019531 -5.257812 29.1875 -9.367188 24.1875 -14.765625 C 19.1875 -20.171875 15.234375 -26.785156 12.328125 -34.609375 C 9.429688 -42.429688 7.984375 -51.347656 7.984375 -61.359375 C 7.984375 -70.335938 9.273438 -78.65625 11.859375 -86.3125 C 14.441406 -93.976562 18.234375 -100.609375 23.234375 -106.203125 C 28.234375 -111.804688 34.425781 -116.195312 41.8125 -119.375 C 49.207031 -122.550781 57.707031 -124.140625 67.3125 -124.140625 C 76.445312 -124.140625 84.445312 -122.671875 91.3125 -119.734375 C 98.1875 -116.796875 104.363281 -112.585938 109.84375 -107.109375 Z M 102.109375 -96.390625 "/></g></g></g><g fill="currentColor" fill-opacity="1"><g transform="translate(462.276087, 235.592819)"><g><path d="M 93.28125 -75.171875 C 93.28125 -78.984375 92.742188 -82.578125 91.671875 -85.953125 C 90.609375 -89.335938 89.003906 -92.300781 86.859375 -94.84375 C 84.710938 -97.382812 81.988281 -99.390625 78.6875 -100.859375 C 75.394531 -102.328125 71.566406 -103.0625 67.203125 -103.0625 C 58.703125 -103.0625 52.007812 -100.632812 47.125 -95.78125 C 42.238281 -90.9375 39.117188 -84.066406 37.765625 -75.171875 Z M 37.171875 -57.421875 C 37.648438 -51.148438 38.757812 -45.726562 40.5 -41.15625 C 42.25 -36.59375 44.550781 -32.820312 47.40625 -29.84375 C 50.269531 -26.863281 53.664062 -24.640625 57.59375 -23.171875 C 61.53125 -21.703125 65.882812 -20.96875 70.65625 -20.96875 C 75.414062 -20.96875 79.523438 -21.523438 82.984375 -22.640625 C 86.441406 -23.753906 89.457031 -24.984375 92.03125 -26.328125 C 94.613281 -27.679688 96.878906 -28.910156 98.828125 -30.015625 C 100.773438 -31.128906 102.660156 -31.6875 104.484375 -31.6875 C 106.953125 -31.6875 108.78125 -30.773438 109.96875 -28.953125 L 118.421875 -18.234375 C 115.171875 -14.421875 111.519531 -11.222656 107.46875 -8.640625 C 103.414062 -6.054688 99.1875 -3.988281 94.78125 -2.4375 C 90.375 -0.894531 85.882812 0.191406 81.3125 0.828125 C 76.75 1.460938 72.320312 1.78125 68.03125 1.78125 C 59.53125 1.78125 51.625 0.375 44.3125 -2.4375 C 37.007812 -5.257812 30.65625 -9.429688 25.25 -14.953125 C 19.851562 -20.472656 15.601562 -27.300781 12.5 -35.4375 C 9.40625 -43.582031 7.859375 -53.015625 7.859375 -63.734375 C 7.859375 -72.078125 9.207031 -79.921875 11.90625 -87.265625 C 14.613281 -94.617188 18.488281 -101.015625 23.53125 -106.453125 C 28.570312 -111.890625 34.726562 -116.195312 42 -119.375 C 49.269531 -122.550781 57.46875 -124.140625 66.59375 -124.140625 C 74.300781 -124.140625 81.410156 -122.910156 87.921875 -120.453125 C 94.441406 -117.992188 100.039062 -114.398438 104.71875 -109.671875 C 109.40625 -104.941406 113.078125 -99.140625 115.734375 -92.265625 C 118.398438 -85.398438 119.734375 -77.5625 119.734375 -68.75 C 119.734375 -64.300781 119.253906 -61.300781 118.296875 -59.75 C 117.347656 -58.195312 115.523438 -57.421875 112.828125 -57.421875 Z M 37.171875 -57.421875 "/></g></g></g><g fill="currentColor" fill-opacity="1"><g transform="translate(586.54185, 235.592819)"><g><path d="M 51.34375 -146.78125 L 51.34375 -95.796875 L 115.921875 -95.796875 L 115.921875 -70.171875 L 51.34375 -70.171875 L 51.34375 0 L 19.1875 0 L 19.1875 -172.28125 L 127.84375 -172.28125 L 127.84375 -146.78125 Z M 51.34375 -146.78125 "/></g></g></g><g fill="currentColor" fill-opacity="1"><g transform="translate(719.504981, 235.592819)"><g><path d="M 44.328125 -177.046875 L 44.328125 0 L 14.890625 0 L 14.890625 -177.046875 Z M 44.328125 -177.046875 "/></g></g></g><g fill="currentColor" fill-opacity="1"><g transform="translate(778.718901, 235.592819)"><g><path d="M 68.625 -124.140625 C 77.675781 -124.140625 85.914062 -122.671875 93.34375 -119.734375 C 100.769531 -116.796875 107.125 -112.625 112.40625 -107.21875 C 117.6875 -101.820312 121.753906 -95.234375 124.609375 -87.453125 C 127.472656 -79.671875 128.90625 -70.972656 128.90625 -61.359375 C 128.90625 -51.671875 127.472656 -42.929688 124.609375 -35.140625 C 121.753906 -27.359375 117.6875 -20.726562 112.40625 -15.25 C 107.125 -9.769531 100.769531 -5.5625 93.34375 -2.625 C 85.914062 0.3125 77.675781 1.78125 68.625 1.78125 C 59.488281 1.78125 51.1875 0.3125 43.71875 -2.625 C 36.257812 -5.5625 29.890625 -9.769531 24.609375 -15.25 C 19.328125 -20.726562 15.234375 -27.359375 12.328125 -35.140625 C 9.429688 -42.929688 7.984375 -51.671875 7.984375 -61.359375 C 7.984375 -70.972656 9.429688 -79.671875 12.328125 -87.453125 C 15.234375 -95.234375 19.328125 -101.820312 24.609375 -107.21875 C 29.890625 -112.625 36.257812 -116.796875 43.71875 -119.734375 C 51.1875 -122.671875 59.488281 -124.140625 68.625 -124.140625 Z M 68.625 -20.84375 C 78.789062 -20.84375 86.316406 -24.257812 91.203125 -31.09375 C 96.085938 -37.925781 98.53125 -47.9375 98.53125 -61.125 C 98.53125 -74.300781 96.085938 -84.34375 91.203125 -91.25 C 86.316406 -98.164062 78.789062 -101.625 68.625 -101.625 C 58.300781 -101.625 50.65625 -98.148438 45.6875 -91.203125 C 40.726562 -84.253906 38.25 -74.226562 38.25 -61.125 C 38.25 -48.019531 40.726562 -38.03125 45.6875 -31.15625 C 50.65625 -24.28125 58.300781 -20.84375 68.625 -20.84375 Z M 68.625 -20.84375 "/></g></g></g><g fill="currentColor" fill-opacity="1"><g transform="translate(913.588328, 235.592819)"><g><path d="M 189.078125 -122.234375 L 150.234375 0 L 126.640625 0 C 123.941406 0 122.078125 -1.75 121.046875 -5.25 L 99.125 -75.890625 C 98.40625 -78.273438 97.75 -80.640625 97.15625 -82.984375 C 96.5625 -85.328125 96.066406 -87.691406 95.671875 -90.078125 C 95.191406 -87.691406 94.65625 -85.285156 94.0625 -82.859375 C 93.46875 -80.441406 92.8125 -78.039062 92.09375 -75.65625 L 69.8125 -5.25 C 68.863281 -1.75 66.757812 0 63.5 0 L 40.859375 0 L 2.140625 -122.234375 L 25.609375 -122.234375 C 27.753906 -122.234375 29.582031 -121.71875 31.09375 -120.6875 C 32.601562 -119.65625 33.597656 -118.347656 34.078125 -116.765625 L 51.59375 -51.46875 C 52.46875 -47.894531 53.238281 -44.398438 53.90625 -40.984375 C 54.582031 -37.566406 55.160156 -34.148438 55.640625 -30.734375 C 56.515625 -34.148438 57.445312 -37.566406 58.4375 -40.984375 C 59.425781 -44.398438 60.476562 -47.894531 61.59375 -51.46875 L 81.84375 -117 C 82.320312 -118.582031 83.253906 -119.890625 84.640625 -120.921875 C 86.035156 -121.960938 87.726562 -122.484375 89.71875 -122.484375 L 102.703125 -122.484375 C 104.765625 -122.484375 106.53125 -121.960938 108 -120.921875 C 109.46875 -119.890625 110.441406 -118.582031 110.921875 -117 L 130.578125 -51.46875 C 131.609375 -47.894531 132.582031 -44.378906 133.5 -40.921875 C 134.414062 -37.472656 135.304688 -34.039062 136.171875 -30.625 C 137.210938 -37.375 138.6875 -44.320312 140.59375 -51.46875 L 158.578125 -116.765625 C 159.128906 -118.347656 160.117188 -119.65625 161.546875 -120.6875 C 162.984375 -121.71875 164.691406 -122.234375 166.671875 -122.234375 Z M 189.078125 -122.234375 "/></g></g></g></g></g></svg>