<svg xmlns="http://www.w3.org/2000/svg" xmlns:xlink="http://www.w3.org/1999/xlink" width="2000" zoomAndPan="magnify" viewBox="0 0 1500 1499.999933" height="2000" preserveAspectRatio="xMidYMid meet" version="1.0"><defs><g/><clipPath id="fefff88c37"><path d="M 350.148438 303.605469 L 1149.648438 303.605469 L 1149.648438 1062.605469 L 350.148438 1062.605469 Z M 350.148438 303.605469 " clip-rule="nonzero"/></clipPath><clipPath id="5ac9128689"><rect x="0" width="784" y="0" height="204"/></clipPath><clipPath id="93b6308661"><path d="M 1140.027344 1131.40625 L 1182.027344 1131.40625 L 1182.027344 1173.40625 L 1140.027344 1173.40625 Z M 1140.027344 1131.40625 " clip-rule="nonzero"/></clipPath><clipPath id="bdfd081f56"><path d="M 1149.476562 1140.855469 L 1172.578125 1140.855469 L 1172.578125 1149.988281 L 1149.476562 1149.988281 Z M 1149.476562 1149.988281 L 1166.277344 1149.988281 L 1166.277344 1154.820312 L 1149.476562 1154.820312 Z M 1149.476562 1154.820312 L 1172.578125 1154.820312 L 1172.578125 1163.953125 L 1149.476562 1163.953125 Z M 1149.476562 1154.820312 " clip-rule="nonzero"/></clipPath></defs><rect x="-150" width="1800" fill="#ffffff" y="-149.999993" height="1799.99992" fill-opacity="1"/><rect x="-150" width="1800" fill="#ffffff" y="-149.999993" height="1799.99992" fill-opacity="1"/><g clip-path="url(#fefff88c37)"><path fill="#12100b" d="M 1040.570312 548.316406 L 1040.570312 630.65625 C 1040.570312 636.152344 1036.175781 640.617188 1030.683594 640.617188 C 1025.195312 640.617188 1020.734375 636.152344 1020.734375 630.65625 L 1020.734375 548.316406 C 1020.734375 542.804688 1025.128906 538.359375 1030.683594 538.359375 C 1036.242188 538.359375 1040.570312 542.824219 1040.570312 548.316406 Z M 970.40625 522.007812 L 970.40625 656.949219 C 970.40625 662.441406 965.945312 666.90625 960.457031 666.90625 C 954.964844 666.90625 950.503906 662.441406 950.503906 656.949219 L 950.503906 522.007812 C 950.503906 516.5 954.964844 512.050781 960.457031 512.050781 C 965.945312 512.050781 970.40625 516.515625 970.40625 522.007812 Z M 900.179688 447.46875 L 900.179688 731.503906 C 900.179688 737 895.714844 741.464844 890.226562 741.464844 C 884.734375 741.464844 880.273438 737 880.273438 731.503906 L 880.273438 447.46875 C 880.273438 441.976562 884.734375 437.511719 890.226562 437.511719 C 895.714844 437.511719 900.179688 441.976562 900.179688 447.46875 Z M 830.015625 487.769531 L 830.015625 691.207031 C 830.015625 696.699219 825.550781 701.164062 820.0625 701.164062 C 814.570312 701.164062 810.109375 696.699219 810.109375 691.207031 L 810.109375 487.769531 C 810.109375 482.257812 814.503906 477.808594 820.0625 477.808594 C 825.617188 477.808594 830.015625 482.273438 830.015625 487.769531 Z M 759.785156 424.050781 L 759.785156 754.925781 C 759.785156 760.433594 755.320312 764.882812 749.832031 764.882812 C 744.339844 764.882812 739.878906 760.417969 739.878906 754.925781 L 739.878906 424.050781 C 739.878906 418.554688 744.339844 414.089844 749.832031 414.089844 C 755.320312 414.089844 759.785156 418.554688 759.785156 424.050781 Z M 689.539062 487.769531 L 689.539062 691.207031 C 689.539062 696.699219 685.140625 701.164062 679.585938 701.164062 C 674.027344 701.164062 669.632812 696.699219 669.632812 691.207031 L 669.632812 487.769531 C 669.632812 482.257812 674.09375 477.808594 679.585938 477.808594 C 685.074219 477.808594 689.539062 482.273438 689.539062 487.769531 Z M 619.308594 447.46875 L 619.308594 731.503906 C 619.308594 737 614.914062 741.464844 609.421875 741.464844 C 603.929688 741.464844 599.46875 737 599.46875 731.503906 L 599.46875 447.46875 C 599.46875 441.976562 603.863281 437.511719 609.421875 437.511719 C 614.980469 437.511719 619.308594 441.976562 619.308594 447.46875 Z M 549.144531 522.007812 L 549.144531 656.949219 C 549.144531 662.441406 544.683594 666.90625 539.191406 666.90625 C 533.703125 666.90625 529.238281 662.441406 529.238281 656.949219 L 529.238281 522.007812 C 529.238281 516.5 533.703125 512.050781 539.191406 512.050781 C 544.683594 512.050781 549.144531 516.515625 549.144531 522.007812 Z M 478.914062 548.316406 L 478.914062 630.65625 C 478.914062 636.152344 474.453125 640.617188 468.960938 640.617188 C 463.472656 640.617188 459.007812 636.152344 459.007812 630.65625 L 459.007812 548.316406 C 459.007812 542.804688 463.472656 538.359375 468.960938 538.359375 C 474.453125 538.359375 478.914062 542.824219 478.914062 548.316406 Z M 1129.644531 739.984375 L 1129.644531 438.972656 C 1129.644531 375.402344 1077.976562 323.699219 1014.445312 323.699219 L 485.21875 323.699219 C 421.6875 323.699219 370.019531 375.417969 370.019531 438.972656 L 370.019531 739.984375 C 370.019531 803.554688 421.6875 855.273438 485.21875 855.273438 L 553.207031 855.273438 C 558.699219 855.273438 563.160156 859.722656 563.160156 865.230469 L 563.160156 1034.414062 C 563.160156 1037.832031 565.050781 1040.621094 568.234375 1041.847656 C 571.421875 1043.078125 574.671875 1042.3125 576.976562 1039.789062 L 742.566406 858.511719 C 744.457031 856.433594 747.113281 855.273438 749.882812 855.273438 L 1014.429688 855.273438 C 1077.957031 855.273438 1129.628906 803.554688 1129.628906 739.984375 Z M 1014.429688 303.78125 L 485.21875 303.78125 C 410.722656 303.78125 350.097656 364.429688 350.097656 438.972656 L 350.097656 739.984375 C 350.097656 814.527344 410.707031 875.175781 485.21875 875.175781 L 543.253906 875.175781 L 543.253906 1034.394531 C 543.253906 1045.996094 550.238281 1056.207031 561.003906 1060.40625 C 564.386719 1061.699219 567.773438 1062.328125 571.238281 1062.328125 C 578.820312 1062.328125 586.265625 1059.160156 591.691406 1053.234375 L 754.308594 875.191406 L 1014.445312 875.191406 C 1088.9375 875.191406 1149.566406 814.542969 1149.566406 740.003906 L 1149.566406 438.972656 C 1149.566406 364.429688 1088.957031 303.78125 1014.445312 303.78125 Z M 1014.429688 303.78125 " fill-opacity="1" fill-rule="evenodd"/></g><g transform="matrix(1, 0, 0, 1, 378, 1114)"><g clip-path="url(#5ac9128689)"><g fill="#000000" fill-opacity="1"><g transform="translate(4.239727, 167.073615)"><g><path d="M 118.171875 -122.046875 L 68.875 0 L 48.359375 0 L -0.921875 -122.046875 L 17.296875 -122.046875 C 19.265625 -122.046875 20.867188 -121.566406 22.109375 -120.609375 C 23.347656 -119.660156 24.28125 -118.425781 24.90625 -116.90625 L 53.6875 -42.453125 C 54.644531 -40.035156 55.554688 -37.378906 56.421875 -34.484375 C 57.296875 -31.585938 58.128906 -28.5625 58.921875 -25.40625 C 59.585938 -28.5625 60.316406 -31.585938 61.109375 -34.484375 C 61.898438 -37.378906 62.773438 -40.035156 63.734375 -42.453125 L 92.34375 -116.90625 C 92.789062 -118.195312 93.675781 -119.375 95 -120.4375 C 96.320312 -121.507812 97.941406 -122.046875 99.859375 -122.046875 Z M 118.171875 -122.046875 "/></g></g></g><g fill="#000000" fill-opacity="1"><g transform="translate(108.060925, 167.073615)"><g><path d="M 48.625 -87.953125 C 55.03125 -87.953125 60.863281 -86.910156 66.125 -84.828125 C 71.394531 -82.742188 75.898438 -79.785156 79.640625 -75.953125 C 83.378906 -72.128906 86.257812 -67.460938 88.28125 -61.953125 C 90.3125 -56.441406 91.328125 -50.28125 91.328125 -43.46875 C 91.328125 -36.601562 90.3125 -30.410156 88.28125 -24.890625 C 86.257812 -19.378906 83.378906 -14.679688 79.640625 -10.796875 C 75.898438 -6.921875 71.394531 -3.941406 66.125 -1.859375 C 60.863281 0.222656 55.03125 1.265625 48.625 1.265625 C 42.144531 1.265625 36.257812 0.222656 30.96875 -1.859375 C 25.6875 -3.941406 21.171875 -6.921875 17.421875 -10.796875 C 13.679688 -14.679688 10.785156 -19.378906 8.734375 -24.890625 C 6.679688 -30.410156 5.65625 -36.601562 5.65625 -43.46875 C 5.65625 -50.28125 6.679688 -56.441406 8.734375 -61.953125 C 10.785156 -67.460938 13.679688 -72.128906 17.421875 -75.953125 C 21.171875 -79.785156 25.6875 -82.742188 30.96875 -84.828125 C 36.257812 -86.910156 42.144531 -87.953125 48.625 -87.953125 Z M 48.625 -14.765625 C 55.820312 -14.765625 61.148438 -17.179688 64.609375 -22.015625 C 68.066406 -26.859375 69.796875 -33.953125 69.796875 -43.296875 C 69.796875 -52.640625 68.066406 -59.757812 64.609375 -64.65625 C 61.148438 -69.550781 55.820312 -72 48.625 -72 C 41.300781 -72 35.878906 -69.535156 32.359375 -64.609375 C 28.847656 -59.691406 27.09375 -52.585938 27.09375 -43.296875 C 27.09375 -34.015625 28.847656 -26.9375 32.359375 -22.0625 C 35.878906 -17.195312 41.300781 -14.765625 48.625 -14.765625 Z M 48.625 -14.765625 "/></g></g></g><g fill="#000000" fill-opacity="1"><g transform="translate(205.045124, 167.073615)"><g><path d="M 31.90625 -86.59375 L 31.90625 0 L 10.96875 0 L 10.96875 -86.59375 Z M 34.78125 -111.84375 C 34.78125 -110.039062 34.410156 -108.347656 33.671875 -106.765625 C 32.941406 -105.191406 31.972656 -103.8125 30.765625 -102.625 C 29.554688 -101.445312 28.132812 -100.503906 26.5 -99.796875 C 24.875 -99.097656 23.128906 -98.75 21.265625 -98.75 C 19.460938 -98.75 17.757812 -99.097656 16.15625 -99.796875 C 14.5625 -100.503906 13.171875 -101.445312 11.984375 -102.625 C 10.804688 -103.8125 9.863281 -105.191406 9.15625 -106.765625 C 8.457031 -108.347656 8.109375 -110.039062 8.109375 -111.84375 C 8.109375 -113.695312 8.457031 -115.4375 9.15625 -117.0625 C 9.863281 -118.695312 10.804688 -120.101562 11.984375 -121.28125 C 13.171875 -122.46875 14.5625 -123.410156 16.15625 -124.109375 C 17.757812 -124.816406 19.460938 -125.171875 21.265625 -125.171875 C 23.128906 -125.171875 24.875 -124.816406 26.5 -124.109375 C 28.132812 -123.410156 29.554688 -122.46875 30.765625 -121.28125 C 31.972656 -120.101562 32.941406 -118.695312 33.671875 -117.0625 C 34.410156 -115.4375 34.78125 -113.695312 34.78125 -111.84375 Z M 34.78125 -111.84375 "/></g></g></g><g fill="#000000" fill-opacity="1"><g transform="translate(247.924094, 167.073615)"><g><path d="M 72.34375 -68.28125 C 71.71875 -67.5 71.109375 -66.878906 70.515625 -66.421875 C 69.929688 -65.972656 69.078125 -65.75 67.953125 -65.75 C 66.878906 -65.75 65.832031 -66.070312 64.8125 -66.71875 C 63.800781 -67.363281 62.59375 -68.09375 61.1875 -68.90625 C 59.78125 -69.726562 58.109375 -70.460938 56.171875 -71.109375 C 54.234375 -71.753906 51.828125 -72.078125 48.953125 -72.078125 C 45.296875 -72.078125 42.085938 -71.414062 39.328125 -70.09375 C 36.578125 -68.769531 34.285156 -66.867188 32.453125 -64.390625 C 30.628906 -61.921875 29.265625 -58.925781 28.359375 -55.40625 C 27.460938 -51.894531 27.015625 -47.914062 27.015625 -43.46875 C 27.015625 -38.851562 27.503906 -34.742188 28.484375 -31.140625 C 29.472656 -27.546875 30.894531 -24.523438 32.75 -22.078125 C 34.601562 -19.628906 36.851562 -17.769531 39.5 -16.5 C 42.144531 -15.238281 45.128906 -14.609375 48.453125 -14.609375 C 51.765625 -14.609375 54.445312 -15.015625 56.5 -15.828125 C 58.5625 -16.640625 60.296875 -17.535156 61.703125 -18.515625 C 63.109375 -19.503906 64.332031 -20.40625 65.375 -21.21875 C 66.414062 -22.039062 67.582031 -22.453125 68.875 -22.453125 C 70.5625 -22.453125 71.828125 -21.804688 72.671875 -20.515625 L 78.671875 -12.921875 C 76.359375 -10.210938 73.851562 -7.941406 71.15625 -6.109375 C 68.457031 -4.285156 65.65625 -2.820312 62.75 -1.71875 C 59.851562 -0.625 56.867188 0.144531 53.796875 0.59375 C 50.734375 1.039062 47.6875 1.265625 44.65625 1.265625 C 39.300781 1.265625 34.257812 0.265625 29.53125 -1.734375 C 24.8125 -3.734375 20.675781 -6.644531 17.125 -10.46875 C 13.582031 -14.289062 10.785156 -18.972656 8.734375 -24.515625 C 6.679688 -30.054688 5.65625 -36.375 5.65625 -43.46875 C 5.65625 -49.820312 6.566406 -55.710938 8.390625 -61.140625 C 10.222656 -66.578125 12.910156 -71.28125 16.453125 -75.25 C 20.003906 -79.21875 24.394531 -82.328125 29.625 -84.578125 C 34.851562 -86.828125 40.875 -87.953125 47.6875 -87.953125 C 54.15625 -87.953125 59.820312 -86.910156 64.6875 -84.828125 C 69.5625 -82.742188 73.941406 -79.757812 77.828125 -75.875 Z M 72.34375 -68.28125 "/></g></g></g><g fill="#000000" fill-opacity="1"><g transform="translate(327.773564, 167.073615)"><g><path d="M 66.09375 -53.265625 C 66.09375 -55.960938 65.710938 -58.503906 64.953125 -60.890625 C 64.191406 -63.285156 63.050781 -65.382812 61.53125 -67.1875 C 60.007812 -68.988281 58.082031 -70.410156 55.75 -71.453125 C 53.414062 -72.492188 50.703125 -73.015625 47.609375 -73.015625 C 41.585938 -73.015625 36.84375 -71.296875 33.375 -67.859375 C 29.914062 -64.429688 27.707031 -59.566406 26.75 -53.265625 Z M 26.328125 -40.6875 C 26.671875 -36.238281 27.460938 -32.394531 28.703125 -29.15625 C 29.941406 -25.925781 31.570312 -23.253906 33.59375 -21.140625 C 35.613281 -19.035156 38.015625 -17.460938 40.796875 -16.421875 C 43.585938 -15.378906 46.671875 -14.859375 50.046875 -14.859375 C 53.429688 -14.859375 56.34375 -15.25 58.78125 -16.03125 C 61.226562 -16.820312 63.367188 -17.695312 65.203125 -18.65625 C 67.035156 -19.613281 68.640625 -20.484375 70.015625 -21.265625 C 71.390625 -22.054688 72.726562 -22.453125 74.03125 -22.453125 C 75.769531 -22.453125 77.0625 -21.804688 77.90625 -20.515625 L 83.90625 -12.921875 C 81.59375 -10.210938 79 -7.941406 76.125 -6.109375 C 73.257812 -4.285156 70.265625 -2.820312 67.140625 -1.71875 C 64.015625 -0.625 60.832031 0.144531 57.59375 0.59375 C 54.363281 1.039062 51.234375 1.265625 48.203125 1.265625 C 42.179688 1.265625 36.582031 0.265625 31.40625 -1.734375 C 26.226562 -3.734375 21.722656 -6.6875 17.890625 -10.59375 C 14.066406 -14.5 11.054688 -19.335938 8.859375 -25.109375 C 6.671875 -30.878906 5.578125 -37.5625 5.578125 -45.15625 C 5.578125 -51.0625 6.53125 -56.617188 8.4375 -61.828125 C 10.351562 -67.035156 13.097656 -71.566406 16.671875 -75.421875 C 20.242188 -79.273438 24.601562 -82.328125 29.75 -84.578125 C 34.894531 -86.828125 40.707031 -87.953125 47.1875 -87.953125 C 52.644531 -87.953125 57.679688 -87.078125 62.296875 -85.328125 C 66.910156 -83.585938 70.875 -81.039062 74.1875 -77.6875 C 77.507812 -74.34375 80.113281 -70.238281 82 -65.375 C 83.882812 -60.507812 84.828125 -54.953125 84.828125 -48.703125 C 84.828125 -45.546875 84.488281 -43.421875 83.8125 -42.328125 C 83.132812 -41.234375 81.84375 -40.6875 79.9375 -40.6875 Z M 26.328125 -40.6875 "/></g></g></g><g fill="#000000" fill-opacity="1"><g transform="translate(415.810562, 167.073615)"><g><path d="M 36.375 -103.984375 L 36.375 -67.859375 L 82.125 -67.859375 L 82.125 -49.71875 L 36.375 -49.71875 L 36.375 0 L 13.59375 0 L 13.59375 -122.046875 L 90.5625 -122.046875 L 90.5625 -103.984375 Z M 36.375 -103.984375 "/></g></g></g><g fill="#000000" fill-opacity="1"><g transform="translate(510.009275, 167.073615)"><g><path d="M 31.40625 -125.421875 L 31.40625 0 L 10.546875 0 L 10.546875 -125.421875 Z M 31.40625 -125.421875 "/></g></g></g><g fill="#000000" fill-opacity="1"><g transform="translate(551.959814, 167.073615)"><g><path d="M 48.625 -87.953125 C 55.03125 -87.953125 60.863281 -86.910156 66.125 -84.828125 C 71.394531 -82.742188 75.898438 -79.785156 79.640625 -75.953125 C 83.378906 -72.128906 86.257812 -67.460938 88.28125 -61.953125 C 90.3125 -56.441406 91.328125 -50.28125 91.328125 -43.46875 C 91.328125 -36.601562 90.3125 -30.410156 88.28125 -24.890625 C 86.257812 -19.378906 83.378906 -14.679688 79.640625 -10.796875 C 75.898438 -6.921875 71.394531 -3.941406 66.125 -1.859375 C 60.863281 0.222656 55.03125 1.265625 48.625 1.265625 C 42.144531 1.265625 36.257812 0.222656 30.96875 -1.859375 C 25.6875 -3.941406 21.171875 -6.921875 17.421875 -10.796875 C 13.679688 -14.679688 10.785156 -19.378906 8.734375 -24.890625 C 6.679688 -30.410156 5.65625 -36.601562 5.65625 -43.46875 C 5.65625 -50.28125 6.679688 -56.441406 8.734375 -61.953125 C 10.785156 -67.460938 13.679688 -72.128906 17.421875 -75.953125 C 21.171875 -79.785156 25.6875 -82.742188 30.96875 -84.828125 C 36.257812 -86.910156 42.144531 -87.953125 48.625 -87.953125 Z M 48.625 -14.765625 C 55.820312 -14.765625 61.148438 -17.179688 64.609375 -22.015625 C 68.066406 -26.859375 69.796875 -33.953125 69.796875 -43.296875 C 69.796875 -52.640625 68.066406 -59.757812 64.609375 -64.65625 C 61.148438 -69.550781 55.820312 -72 48.625 -72 C 41.300781 -72 35.878906 -69.535156 32.359375 -64.609375 C 28.847656 -59.691406 27.09375 -52.585938 27.09375 -43.296875 C 27.09375 -34.015625 28.847656 -26.9375 32.359375 -22.0625 C 35.878906 -17.195312 41.300781 -14.765625 48.625 -14.765625 Z M 48.625 -14.765625 "/></g></g></g><g fill="#000000" fill-opacity="1"><g transform="translate(647.509057, 167.073615)"><g><path d="M 133.953125 -86.59375 L 106.4375 0 L 89.71875 0 C 87.8125 0 86.488281 -1.238281 85.75 -3.71875 L 70.21875 -53.765625 C 69.71875 -55.453125 69.253906 -57.125 68.828125 -58.78125 C 68.410156 -60.445312 68.0625 -62.125 67.78125 -63.8125 C 67.4375 -62.125 67.050781 -60.421875 66.625 -58.703125 C 66.207031 -56.984375 65.75 -55.28125 65.25 -53.59375 L 49.46875 -3.71875 C 48.789062 -1.238281 47.296875 0 44.984375 0 L 28.953125 0 L 1.515625 -86.59375 L 18.140625 -86.59375 C 19.660156 -86.59375 20.957031 -86.226562 22.03125 -85.5 C 23.101562 -84.769531 23.804688 -83.84375 24.140625 -82.71875 L 36.546875 -36.46875 C 37.160156 -33.9375 37.707031 -31.457031 38.1875 -29.03125 C 38.664062 -26.613281 39.078125 -24.195312 39.421875 -21.78125 C 40.035156 -24.195312 40.691406 -26.613281 41.390625 -29.03125 C 42.097656 -31.457031 42.847656 -33.9375 43.640625 -36.46875 L 57.984375 -82.890625 C 58.328125 -84.015625 58.988281 -84.941406 59.96875 -85.671875 C 60.957031 -86.398438 62.15625 -86.765625 63.5625 -86.765625 L 72.765625 -86.765625 C 74.222656 -86.765625 75.472656 -86.398438 76.515625 -85.671875 C 77.554688 -84.941406 78.242188 -84.015625 78.578125 -82.890625 L 92.515625 -36.46875 C 93.242188 -33.9375 93.929688 -31.445312 94.578125 -29 C 95.222656 -26.550781 95.851562 -24.113281 96.46875 -21.6875 C 97.207031 -26.46875 98.25 -31.394531 99.59375 -36.46875 L 112.34375 -82.71875 C 112.738281 -83.84375 113.441406 -84.769531 114.453125 -85.5 C 115.460938 -86.226562 116.671875 -86.59375 118.078125 -86.59375 Z M 133.953125 -86.59375 "/></g></g></g></g></g><g clip-path="url(#93b6308661)"><path stroke-linecap="butt" transform="matrix(0.21, 0, 0, 0.21, 1140.028303, 1131.404523)" fill="none" stroke-linejoin="miter" d="M 188.499899 100.008228 C 188.499899 102.891412 188.351089 105.793198 188.072072 108.676383 C 187.793054 111.559567 187.365226 114.424151 186.807191 117.270133 C 186.230554 120.116115 185.523708 122.924895 184.686655 125.696472 C 183.849601 128.46805 182.863738 131.183824 181.766268 133.862395 C 180.650196 136.540966 179.422518 139.163734 178.04603 141.712097 C 176.688143 144.279062 175.200048 146.75302 173.581744 149.171175 C 171.982042 151.570729 170.252131 153.895877 168.410613 156.146622 C 166.569095 158.378764 164.634571 160.536503 162.569839 162.582634 C 160.523708 164.628765 158.384571 166.58189 156.152428 168.404806 C 153.901684 170.246324 151.576535 171.976235 149.176982 173.575937 C 146.758827 175.194241 144.266267 176.682336 141.717904 178.058824 C 139.169541 179.416711 136.546773 180.662991 133.868202 181.760461 C 131.18963 182.876533 128.455255 183.843795 125.683678 184.680848 C 122.9121 185.536503 120.10332 186.224747 117.257338 186.801384 C 114.429957 187.35942 111.565374 187.787247 108.682189 188.066265 C 105.799005 188.363884 102.897219 188.494092 99.995433 188.494092 C 97.093647 188.494092 94.210463 188.363884 91.327278 188.066265 C 88.444094 187.787247 85.57951 187.35942 82.733528 186.801384 C 79.887546 186.224747 77.078766 185.536503 74.307189 184.680848 C 71.535611 183.843795 68.801236 182.876533 66.141266 181.760461 C 63.462694 180.662991 60.839927 179.416711 58.272962 178.058824 C 55.724599 176.682336 53.250641 175.194241 50.832486 173.575937 C 48.414331 171.976235 46.089182 170.246324 43.857039 168.404806 C 41.624896 166.58189 39.467158 164.628765 37.421027 162.582634 C 35.374896 160.536503 33.421771 158.378764 31.580253 156.146622 C 29.757337 153.895877 28.027426 151.570729 26.409122 149.171175 C 24.80942 146.75302 23.321325 144.279062 21.944837 141.712097 C 20.58695 139.163734 19.34067 136.540966 18.2432 133.862395 C 17.127128 131.183824 16.159866 128.46805 15.304211 125.696472 C 14.467158 122.924895 13.760313 120.116115 13.202277 117.270133 C 12.644241 114.424151 12.216414 111.559567 11.918795 108.676383 C 11.639777 105.793198 11.490967 102.891412 11.490967 100.008228 C 11.490967 97.106442 11.639777 94.204656 11.918795 91.321472 C 12.216414 88.438287 12.644241 85.573704 13.202277 82.727721 C 13.760313 79.90034 14.467158 77.091561 15.304211 74.301382 C 16.159866 71.529805 17.127128 68.814031 18.2432 66.135459 C 19.34067 63.456888 20.58695 60.83412 21.944837 58.285757 C 23.321325 55.718792 24.80942 53.244834 26.409122 50.826679 C 28.027426 48.427126 29.757337 46.101977 31.580253 43.851233 C 33.421771 41.61909 35.374896 39.461352 37.421027 37.415221 C 39.467158 35.36909 41.624896 33.434566 43.857039 31.593048 C 46.089182 29.75153 48.414331 28.021619 50.832486 26.421917 C 53.250641 24.803613 55.724599 23.315518 58.272962 21.957631 C 60.839927 20.581143 63.462694 19.353464 66.141266 18.237393 C 68.801236 17.121321 71.535611 16.15406 74.307189 15.317006 C 77.078766 14.461351 79.887546 13.773107 82.733528 13.19647 C 85.57951 12.638435 88.444094 12.210607 91.327278 11.931589 C 94.210463 11.63397 97.093647 11.503762 99.995433 11.503762 C 102.897219 11.503762 105.799005 11.63397 108.682189 11.931589 C 111.565374 12.210607 114.429957 12.638435 117.257338 13.19647 C 120.10332 13.773107 122.9121 14.461351 125.683678 15.317006 C 128.455255 16.15406 131.18963 17.121321 133.868202 18.237393 C 136.546773 19.353464 139.169541 20.581143 141.717904 21.957631 C 144.266267 23.315518 146.758827 24.803613 149.176982 26.421917 C 151.576535 28.021619 153.901684 29.75153 156.152428 31.593048 C 158.384571 33.434566 160.523708 35.36909 162.569839 37.415221 C 164.634571 39.461352 166.569095 41.61909 168.410613 43.851233 C 170.252131 46.101977 171.982042 48.427126 173.581744 50.826679 C 175.200048 53.244834 176.688143 55.718792 178.04603 58.285757 C 179.422518 60.83412 180.650196 63.456888 181.766268 66.135459 C 182.863738 68.814031 183.849601 71.529805 184.686655 74.301382 C 185.523708 77.091561 186.230554 79.90034 186.807191 82.727721 C 187.365226 85.573704 187.793054 88.438287 188.072072 91.321472 C 188.351089 94.204656 188.499899 97.106442 188.499899 100.008228 Z M 188.499899 100.008228 " stroke="#000000" stroke-width="23" stroke-opacity="1" stroke-miterlimit="4"/></g><g clip-path="url(#bdfd081f56)"><path stroke-linecap="butt" transform="matrix(0.21, 0, 0, 0.21, 1140.028303, 1131.404523)" fill="none" stroke-linejoin="miter" d="M 142.499154 100.008228 C 142.499154 102.798406 142.220136 105.551383 141.680702 108.285758 C 141.141267 111.020133 140.341416 113.680103 139.262547 116.265668 C 138.202279 118.851234 136.881595 121.28799 135.337696 123.613139 C 133.793797 125.938288 132.026684 128.077425 130.054957 130.049151 C 128.083231 132.020877 125.925493 133.78799 123.618945 135.331889 C 121.293797 136.894389 118.838439 138.196472 116.271475 139.25674 C 113.68591 140.335609 111.025939 141.135461 108.291564 141.674895 C 105.557189 142.232931 102.785612 142.493348 99.995433 142.493348 C 97.205255 142.493348 94.452278 142.232931 91.717903 141.674895 C 88.964927 141.135461 86.304957 140.335609 83.737992 139.25674 C 81.152427 138.196472 78.715671 136.894389 76.390522 135.331889 C 74.065373 133.78799 71.926236 132.020877 69.95451 130.049151 C 67.982784 128.077425 66.215671 125.938288 64.671772 123.613139 C 63.109272 121.28799 61.807188 118.851234 60.728319 116.265668 C 59.668051 113.680103 58.8682 111.020133 58.310165 108.285758 C 57.77073 105.551383 57.491712 102.798406 57.491712 100.008228 C 57.491712 97.218049 57.77073 94.446472 58.310165 91.712097 C 58.8682 88.977722 59.668051 86.317751 60.728319 83.732186 C 61.807188 81.165221 63.109272 78.709864 64.671772 76.384715 C 66.215671 74.059567 67.982784 71.92043 69.95451 69.948703 C 71.926236 67.976977 74.065373 66.209864 76.390522 64.665965 C 78.715671 63.103465 81.152427 61.801382 83.737992 60.741114 C 86.304957 59.662245 88.964927 58.862394 91.717903 58.322959 C 94.452278 57.764923 97.205255 57.504507 99.995433 57.504507 C 102.785612 57.504507 105.557189 57.764923 108.291564 58.322959 C 111.025939 58.862394 113.68591 59.662245 116.271475 60.741114 C 118.838439 61.801382 121.293797 63.103465 123.618945 64.665965 C 125.925493 66.209864 128.083231 67.976977 130.054957 69.948703 C 132.026684 71.92043 133.793797 74.059567 135.337696 76.384715 C 136.881595 78.709864 138.202279 81.165221 139.262547 83.732186 C 140.341416 86.317751 141.141267 88.977722 141.680702 91.712097 C 142.220136 94.446472 142.499154 97.218049 142.499154 100.008228 Z M 142.499154 100.008228 " stroke="#000000" stroke-width="23" stroke-opacity="1" stroke-miterlimit="4"/></g></svg>